<svg xmlns="http://www.w3.org/2000/svg" viewBox="0 0 512 512" fill="none">
  <defs>
    <filter id="motionsmith-glow" x="-20%" y="-20%" width="140%" height="140%">
      <feDropShadow dx="0" dy="0" stdDeviation="14" flood-color="#5a6cff" flood-opacity="0.18"/>
    </filter>
  </defs>
  <g filter="url(#motionsmith-glow)">
    <circle cx="160" cy="108" r="70" fill="#FFCD37" stroke="#2F60D8" stroke-width="22"/>
    <circle cx="132" cy="94" r="11" fill="#FF7C2F"/>
    <circle cx="188" cy="94" r="11" fill="#FF7C2F"/>
    <path d="M131 124c14 16 44 16 58 0" stroke="#FF7C2F" stroke-linecap="round" stroke-width="16"/>
    <path d="M120 174h84c18 0 32 14 32 32v24c0 41-33 74-74 74s-74-33-74-74v-24c0-18 14-32 32-32Z" fill="#FF4FA0" stroke="#2F60D8" stroke-width="18"/>
    <path d="M104 202 64 236 86 328" stroke="#2F60D8" stroke-linecap="round" stroke-linejoin="round" stroke-width="22"/>
    <path d="M220 202h76" stroke="#2F60D8" stroke-linecap="round" stroke-width="22"/>
    <path d="M296 202 360 134" stroke="#2F60D8" stroke-linecap="round" stroke-width="22"/>
    <path d="M160 304 134 392" stroke="#2F60D8" stroke-linecap="round" stroke-width="22"/>
    <path d="M238 290 290 338" stroke="#2F60D8" stroke-linecap="round" stroke-width="22"/>
    <circle cx="104" cy="202" r="16" fill="#FFD233" stroke="#2F60D8" stroke-width="10"/>
    <circle cx="64" cy="236" r="13" fill="#FF7C2F" stroke="#2F60D8" stroke-width="10"/>
    <circle cx="86" cy="328" r="17" fill="#FF7C2F" stroke="#2F60D8" stroke-width="10"/>
    <circle cx="296" cy="202" r="16" fill="#FFD233" stroke="#2F60D8" stroke-width="10"/>
    <circle cx="360" cy="134" r="22" fill="#FF4FA0" stroke="#2F60D8" stroke-width="12"/>
    <circle cx="160" cy="304" r="14" fill="#FFD233" stroke="#2F60D8" stroke-width="10"/>
    <circle cx="238" cy="290" r="14" fill="#9755FF" stroke="#2F60D8" stroke-width="10"/>
    <path d="M118 384h208c8 0 14 6 14 14v48c0 8-6 14-14 14H118c-8 0-14-6-14-14v-48c0-8 6-14 14-14Z" fill="#FF4FA0" stroke="#2F60D8" stroke-width="14"/>
    <path d="M170 370c0-14 10-24 22-24s22 10 22 24" stroke="#2F60D8" stroke-linecap="round" stroke-width="14"/>
    <g transform="translate(332 370)">
      <g fill="#5B35E6">
        <rect x="-18" y="-78" width="36" height="156" rx="12"/>
        <rect x="-18" y="-78" width="36" height="156" rx="12" transform="rotate(45)"/>
        <rect x="-18" y="-78" width="36" height="156" rx="12" transform="rotate(90)"/>
        <rect x="-18" y="-78" width="36" height="156" rx="12" transform="rotate(135)"/>
      </g>
      <circle r="56" fill="#4A30D8"/>
      <circle r="32" fill="#37C8FF"/>
      <circle r="16" fill="#FFCD37"/>
    </g>
  </g>
</svg>
